<?xml version="1.0" encoding="UTF-8"?>
<svg xmlns="http://www.w3.org/2000/svg" xmlns:xlink="http://www.w3.org/1999/xlink" width="512px" height="512px" viewBox="0 0 512 512" version="1.1">
<g id="surface1">
<path style=" stroke:none;fill-rule:nonzero;fill:rgb(0%,60%,80%);fill-opacity:1;" d="M 0 0 L 512 0 L 512 170.667969 L 0 170.667969 Z M 0 0 "/>
<path style=" stroke:none;fill-rule:nonzero;fill:rgb(60%,80%,20%);fill-opacity:1;" d="M 0 170.667969 L 512 170.667969 L 512 341.332031 L 0 341.332031 Z M 0 170.667969 "/>
<path style=" stroke:none;fill-rule:nonzero;fill:rgb(100%,89.803922%,7.45098%);fill-opacity:1;" d="M 0 341.332031 L 512 341.332031 L 512 512 L 0 512 Z M 0 341.332031 "/>
<path style=" stroke:none;fill-rule:nonzero;fill:rgb(80%,0%,20%);fill-opacity:1;" d="M 244.4375 407.585938 L 260.625 433.253906 L 265.25 83.601562 L 256 69.03125 Z M 244.4375 407.585938 "/>
<path style=" stroke:none;fill-rule:nonzero;fill:rgb(80%,0%,20%);fill-opacity:1;" d="M 373.9375 440.191406 L 404.925781 420.074219 C 345.265625 331.273438 311.039062 298.664062 254.613281 296.585938 C 182.925781 304.214844 136.210938 347.230469 116.324219 432.5625 L 130.199219 428.398438 C 187.085938 322.949219 219.460938 334.742188 255.539062 328.496094 C 293.925781 330.578125 333.238281 368.042969 373.9375 440.191406 Z M 373.9375 440.191406 "/>
<path style=" stroke:none;fill-rule:nonzero;fill:rgb(80%,0%,20%);fill-opacity:1;" d="M 164.886719 79.4375 L 135.285156 91.230469 C 163.960938 167.546875 205.125 214.027344 257.851562 217.496094 C 327.6875 218.191406 367.925781 147.425781 395.675781 83.601562 L 372.089844 94.007812 C 327.226562 189.050781 278.664062 192.519531 256.925781 187.664062 C 220.386719 183.503906 190.324219 138.40625 164.886719 79.4375 Z M 164.886719 79.4375 "/>
</g>
</svg>
