<?xml version="1.0" encoding="UTF-8" standalone="no"?>
<svg
   id="flag-icons-at"
   viewBox="0 0 640 480"
   version="1.1"
   sodipodi:docname="zz.svg"
   xml:space="preserve"
   inkscape:version="1.2 (dc2aedaf03, 2022-05-15)"
   xmlns:inkscape="http://www.inkscape.org/namespaces/inkscape"
   xmlns:sodipodi="http://sodipodi.sourceforge.net/DTD/sodipodi-0.dtd"
   xmlns="http://www.w3.org/2000/svg"
   xmlns:svg="http://www.w3.org/2000/svg"><defs
     id="defs11" /><sodipodi:namedview
     id="namedview9"
     pagecolor="#505050"
     bordercolor="#eeeeee"
     borderopacity="1"
     inkscape:showpageshadow="0"
     inkscape:pageopacity="0"
     inkscape:pagecheckerboard="0"
     inkscape:deskcolor="#505050"
     showgrid="false"
     inkscape:zoom="1.74375"
     inkscape:cx="301.36201"
     inkscape:cy="240.28674"
     inkscape:window-width="1920"
     inkscape:window-height="1017"
     inkscape:window-x="-8"
     inkscape:window-y="-8"
     inkscape:window-maximized="1"
     inkscape:current-layer="flag-icons-at" /><g
     fill-rule="evenodd"
     id="g6"><path
       fill="#fff"
       d="M640 480H0V0h640z"
       id="path2" /><path
       fill="#c8102e"
       d="M640 480H0V320h640zm0-319.9H0V.1h640z"
       id="path4" /></g><g
     id="g1608"><g
       id="surface1"
       transform="translate(0.57347639,0.0071682)"><path
         style="fill:#0099cc;fill-opacity:1;fill-rule:nonzero;stroke:none"
         d="M 0,0 H 640 V 160 H 0 Z m 0,0"
         id="path1212" /><path
         style="fill:#99cc33;fill-opacity:1;fill-rule:nonzero;stroke:none"
         d="M 0,160 H 640 V 320 H 0 Z m 0,0"
         id="path1214" /><path
         style="fill:#ffe311;fill-opacity:1;fill-rule:nonzero;stroke:none"
         d="M 0,320 H 640 V 480 H 0 Z m 0,0"
         id="path1216" /><path
         style="fill:#cc0033;fill-opacity:1;fill-rule:nonzero;stroke:none"
         d="m 305.54687,382.11328 20.23438,24.0625 L 331.5625,78.375 320,64.71875 Z m 0,0"
         id="path1218" /><path
         style="fill:#cc0033;fill-opacity:1;fill-rule:nonzero;stroke:none"
         d="m 467.42578,412.67969 38.73438,-18.85938 C 431.57812,310.56641 388.79687,280 318.26562,278.04687 c -89.60937,7.15625 -148.0039,47.48047 -172.86328,127.48047 l 17.34375,-3.90234 c 71.11328,-98.86328 111.58203,-87.80469 156.67578,-93.66016 47.98438,1.95313 97.125,37.07422 148.00391,104.71485 z m 0,0"
         id="path1220" /><path
         style="fill:#cc0033;fill-opacity:1;fill-rule:nonzero;stroke:none"
         d="m 206.10937,74.472656 -37.0039,11.058594 c 35.84765,71.54297 87.30078,115.12109 153.20703,118.37109 87.29687,0.65235 137.59766,-65.6914 172.28516,-125.52734 l -29.48438,9.757812 C 409.03125,177.23828 348.32812,180.48828 321.15625,175.9375 275.48437,172.03516 237.90625,129.75781 206.10937,74.472656 Z m 0,0"
         id="path1222" /></g></g></svg>
